<?xml version="1.0" standalone="no"?>
<!DOCTYPE svg PUBLIC "-//W3C//DTD SVG 20010904//EN"
 "http://www.w3.org/TR/2001/REC-SVG-20010904/DTD/svg10.dtd">
<svg version="1.0" xmlns="http://www.w3.org/2000/svg"
 width="65.000000pt" height="65.000000pt" viewBox="0 0 65.000000 65.000000"
 preserveAspectRatio="xMidYMid meet">

<g transform="translate(0.000000,65.000000) scale(0.100000,-0.100000)"
fill="#000000" stroke="none">
<path d="M300 586 c-27 -33 18 -72 48 -42 13 13 14 20 6 34 -15 23 -38 26 -54
8z m40 -21 c0 -8 -7 -15 -15 -15 -8 0 -15 7 -15 15 0 8 7 15 15 15 8 0 15 -7
15 -15z"/>
<path d="M110 455 l0 -45 225 0 225 0 0 45 0 45 -225 0 -225 0 0 -45z m430 -5
l0 -30 -205 0 -205 0 0 30 0 30 205 0 205 0 0 -30z"/>
<path d="M132 337 c85 -122 202 -275 209 -272 10 7 219 291 219 299 0 3 -101
6 -225 6 l-226 0 23 -33z m398 17 c0 -8 -179 -252 -189 -258 -8 -5 -191 238
-191 254 0 6 75 10 190 10 105 0 190 -3 190 -6z"/>
<path d="M65 260 c3 -5 8 -10 11 -10 2 0 4 5 4 10 0 6 -5 10 -11 10 -5 0 -7
-4 -4 -10z"/>
<path d="M97 183 c-26 -26 12 -80 47 -67 21 8 30 42 16 59 -13 15 -51 20 -63
8z m50 -19 c8 -21 -13 -42 -28 -27 -13 13 -5 43 11 43 6 0 13 -7 17 -16z"/>
<path d="M505 146 c-23 -34 -5 -66 36 -66 41 0 61 40 34 70 -24 27 -51 25 -70
-4z m62 -12 c3 -8 -2 -23 -11 -32 -15 -15 -17 -15 -32 0 -21 21 -11 48 16 48
11 0 23 -7 27 -16z"/>
</g>
</svg>
